<svg width="32" height="32" viewBox="0 0 32 32" fill="none" xmlns="http://www.w3.org/2000/svg">
<path d="M0 8C0 4.22876 0 2.34315 1.17157 1.17157C2.34315 0 4.22876 0 8 0H17L22.65 6.45L9.5 6.5V9.5L14.5 15L9 22V25H23V22H13.5L18.5 15L14 9.5L22.65 9.65V6.45L13.5 3.03333L17 0H24C27.7712 0 29.6569 0 30.8284 1.17157C32 2.34315 32 4.22876 32 8V24C32 27.7712 32 29.6569 30.8284 30.8284C29.6569 32 27.7712 32 24 32H8C4.22876 32 2.34315 32 1.17157 30.8284C0 29.6569 0 27.7712 0 24V8Z" fill="#211F21"/>
<path d="M9.5 6.5V9.5L14.5 15L9 22V25H23V22H13.5L18.5 15L14 9.5L22.65 9.65V6.45L9.5 6.5Z" fill="white"/>
</svg>
